<svg width="1439" height="363" viewBox="0 0 1439 363" fill="none" xmlns="http://www.w3.org/2000/svg">
<rect x="181" width="181" height="181" fill="#5E93E8"/>
<rect x="181" y="181" width="181" height="181" fill="#FDDBF2"/>
<rect x="181" y="181" width="181" height="181" fill="#FDDBF2"/>
<rect width="181" height="181" fill="#FDDBF2"/>
<rect width="181" height="181" fill="#FDDBF2"/>
<rect x="362" width="181" height="181" fill="#FDDBF2"/>
<rect x="362" width="181" height="181" fill="#FDDBF2"/>
<rect x="534" y="181" width="181" height="181" fill="#FDDBF2"/>
<rect x="534" y="181" width="181" height="181" fill="#FDDBF2"/>
<rect x="1258" y="181" width="181" height="182" fill="#FDDBF2"/>
<rect x="1258" y="181" width="181" height="182" fill="#FDDBF2"/>
<rect x="715" width="181" height="181" fill="#FDDBF2"/>
<rect x="715" width="181" height="181" fill="#FDDBF2"/>
<rect x="896" y="181" width="181" height="182" fill="#FDDBF2"/>
<rect x="896" y="181" width="181" height="182" fill="#FDDBF2"/>
<rect x="1077" width="181" height="181" fill="#FDDBF2"/>
<rect x="1077" width="181" height="181" fill="#0A2147"/>
<rect x="362" y="181" width="181" height="181" fill="#FDDBF2"/>
<rect x="715" y="181" width="181" height="181" fill="#5E93E8"/>
<rect x="1076" y="181" width="182" height="182" fill="#5E93E8"/>
<rect x="896" width="181" height="181" fill="#5E93E8"/>
<rect x="1258" width="181" height="181" fill="#5E93E8"/>
<rect x="534" width="181" height="181" fill="#5E93E8"/>
<rect y="181" width="181" height="181" fill="#5E93E8"/>
</svg>
