<svg width="74" height="141" viewBox="0 0 74 141" fill="none" xmlns="http://www.w3.org/2000/svg">
<path d="M42 5C42 2.23858 39.7614 -1.20706e-07 37 0C34.2386 1.20706e-07 32 2.23858 32 5L42 5ZM33.4645 139.536C35.4171 141.488 38.5829 141.488 40.5355 139.536L72.3553 107.716C74.308 105.763 74.308 102.597 72.3553 100.645C70.4027 98.692 67.2369 98.692 65.2843 100.645L37 128.929L8.71573 100.645C6.76311 98.692 3.59729 98.692 1.64467 100.645C-0.307956 102.597 -0.307956 105.763 1.64467 107.716L33.4645 139.536ZM32 5L32 136L42 136L42 5L32 5Z" fill="#5E93E8"/>
</svg>
