<svg width="701" height="777" viewBox="0 0 701 777" fill="none" xmlns="http://www.w3.org/2000/svg">
<rect x="349" y="524" width="357" height="253" fill="#5E93E8"/>
<rect x="350" y="2" width="176" height="176" fill="#0A2147"/>
<rect x="176" y="2" width="176" height="176" fill="#5E93E8"/>
<rect x="176" y="353" width="176" height="176" fill="#5E93E8"/>
<rect y="178" width="176" height="176" fill="#5E93E8"/>
<rect x="176" y="178" width="176" height="176" fill="#0A2147"/>
<rect y="353" width="176" height="176" fill="#0A2147"/>
<rect x="525" y="177" width="176" height="176" fill="#0A2147"/>
<circle cx="88" cy="443" r="88" fill="#FDDBF2"/>
<circle cx="614" cy="88" r="88" fill="#FFAAE4"/>
<rect x="352" y="177" width="176" height="176" fill="#5E93E8"/>
<rect x="527" y="353" width="176" height="176" fill="#5E93E8"/>
<path d="M439.54 41L520.081 177.5H359L439.54 41Z" fill="#061329"/>
<rect x="352" y="353" width="176" height="176" fill="#0A2147"/>
<path d="M441.54 392L522.081 528.5H361L441.54 392Z" fill="#061329"/>
<circle cx="605" cy="689" r="88" fill="#0A2147"/>
</svg>
