<svg width="968" height="176" viewBox="0 0 968 176" fill="none" xmlns="http://www.w3.org/2000/svg">
<rect x="909.893" width="60.1068" height="58" rx="5" fill="#5E93E8"/>
<rect x="909.893" y="118" width="60.1068" height="58" rx="5" fill="#5E93E8"/>
<rect x="848.75" y="58" width="61.1432" height="59" rx="5" fill="#5E93E8"/>
<rect x="788.643" width="60.1068" height="58" rx="5" fill="#5E93E8"/>
<rect x="788.643" y="118" width="60.1068" height="58" rx="5" fill="#5E93E8"/>
<rect x="727.5" y="59" width="61.1432" height="59" rx="5" fill="#5E93E8"/>
<rect x="667.393" width="60.1068" height="58" rx="5" fill="#5E93E8"/>
<rect x="667.393" y="118" width="60.1068" height="58" rx="5" fill="#5E93E8"/>
<rect x="606.25" y="58" width="61.1432" height="59" rx="5" fill="#5E93E8"/>
<rect x="546.143" width="60.1068" height="58" rx="5" fill="#5E93E8"/>
<rect x="546.143" y="118" width="60.1068" height="58" rx="5" fill="#5E93E8"/>
<rect x="485" y="59" width="61.1432" height="59" rx="5" fill="#5E93E8"/>
<rect x="424.893" width="60.1068" height="58" rx="5" fill="#5E93E8"/>
<rect x="424.893" y="118" width="60.1068" height="58" rx="5" fill="#5E93E8"/>
<rect x="363.75" y="58" width="61.1432" height="59" rx="5" fill="#5E93E8"/>
<rect x="303.643" width="60.1068" height="58" rx="5" fill="#5E93E8"/>
<rect x="303.643" y="118" width="60.1068" height="58" rx="5" fill="#5E93E8"/>
<rect x="242.5" y="59" width="61.1432" height="59" rx="5" fill="#5E93E8"/>
<rect x="182.393" width="60.1068" height="58" rx="5" fill="#5E93E8"/>
<rect x="182.393" y="118" width="60.1068" height="58" rx="5" fill="#5E93E8"/>
<rect x="121.25" y="58" width="61.1432" height="59" rx="5" fill="#5E93E8"/>
<rect x="61.1431" width="60.1068" height="58" rx="5" fill="#5E93E8"/>
<rect x="61.1431" y="118" width="60.1068" height="58" rx="5" fill="#5E93E8"/>
<rect y="59" width="61.1432" height="59" rx="5" fill="#5E93E8"/>
</svg>
